<svg width="150" height="150" viewBox="0 0 150 150" fill="none" xmlns="http://www.w3.org/2000/svg">
    <rect width="150" height="150" />
    <mask id="path-1-inside-1_0_1">
        <path fill-rule="evenodd" clip-rule="evenodd"
            d="M107.963 91.9254C102.25 95.7393 95.3845 97.9627 88 97.9627C68.1177 97.9627 52 81.845 52 61.9627C52 54.5782 54.2234 47.713 58.0373 42C48.3685 48.4547 42 59.465 42 71.9627C42 91.845 58.1177 107.963 78 107.963C90.4977 107.963 101.508 101.594 107.963 91.9254Z" />
    </mask>
    <path
        d="M107.963 91.9254L108.794 92.4807L107.407 91.0937L107.963 91.9254ZM58.0373 42L58.869 42.5552L57.482 41.1683L58.0373 42ZM107.407 91.0937C101.854 94.8013 95.1808 96.9627 88 96.9627V98.9627C95.5882 98.9627 102.646 96.6773 108.518 92.7571L107.407 91.0937ZM88 96.9627C68.67 96.9627 53 81.2927 53 61.9627H51C51 82.3973 67.5655 98.9627 88 98.9627V96.9627ZM53 61.9627C53 54.7819 55.1614 48.109 58.869 42.5552L57.2056 41.4448C53.2854 47.317 51 54.3745 51 61.9627H53ZM43 71.9627C43 59.8131 49.1898 49.1088 58.5925 42.8317L57.482 41.1683C47.5472 47.8006 41 59.1169 41 71.9627H43ZM78 106.963C58.67 106.963 43 91.2927 43 71.9627H41C41 92.3973 57.5655 108.963 78 108.963V106.963ZM107.131 91.3702C100.854 100.773 90.1496 106.963 78 106.963V108.963C90.8459 108.963 102.162 102.416 108.794 92.4807L107.131 91.3702Z"
        mask="url(#path-1-inside-1_0_1)" />
    <circle cx="78" cy="72" r="35.5" />
    <line x1="77.5" y1="30" x2="77.5" y2="12" />
    <line x1="36" y1="72.5" x2="18" y2="72.5" />
    <line x1="48.3744" y1="43.0815" x2="35.6464" y2="30.3536" />
    <line y1="-0.5" x2="18" y2="-0.5"
        transform="matrix(0.707107 -0.707107 -0.707107 -0.707107 108.125 42.7279)" />
    <line x1="77.5" y1="132" x2="77.5" y2="114" />
    <line x1="138" y1="72.5" x2="120" y2="72.5" />
    <line x1="120.499" y1="115.206" x2="107.771" y2="102.478" />
    <line y1="-0.5" x2="18" y2="-0.5"
        transform="matrix(0.707107 -0.707107 -0.707107 -0.707107 36 114.853)" />
</svg>